<?xml version="1.0" encoding="UTF-8" standalone="no"?>
<!DOCTYPE svg PUBLIC "-//W3C//DTD SVG 1.0//EN" "http://www.w3.org/TR/2001/PR-SVG-20010719/DTD/svg10.dtd">
<svg width="37cm" height="9cm" viewBox="-101 48 733 170" xmlns="http://www.w3.org/2000/svg" xmlns:xlink="http://www.w3.org/1999/xlink">
  <text style="fill: #000000;text-anchor:start;font-size:28pt;font-family:Latin Modern Mono;font-style:normal;font-weight:normal" x="-100.315" y="116.064">
    <tspan x="-100.315" y="116.064">(+ 5 (* 3 8))</tspan>
  </text>
  <g>
    <rect style="fill: #ffffff" x="223.9" y="51.2875" width="60" height="30"/>
    <rect style="fill: none; fill-opacity:0; stroke-width: 2.4; stroke: #000000" x="223.9" y="51.2875" width="60" height="30"/>
    <text style="fill: #000000;text-anchor:middle;font-size:11.1992;font-family:Latin Modern Roman;font-style:normal;font-weight:normal" x="253.9" y="69.6875">
      <tspan x="253.9" y="69.6875"></tspan>
    </text>
  </g>
  <line style="fill: none; fill-opacity:0; stroke-width: 2; stroke: #000000" x1="253.9" y1="51.2875" x2="253.9" y2="81.2875"/>
  <text style="fill: #000000;text-anchor:start;font-size:28pt;font-family:Latin Modern Mono;font-style:normal;font-weight:normal" x="231.5" y="120.638">
    <tspan x="231.5" y="120.638">+</tspan>
  </text>
  <g>
    <rect style="fill: #ffffff" x="311.072" y="51.1107" width="60" height="30"/>
    <rect style="fill: none; fill-opacity:0; stroke-width: 2.4; stroke: #000000" x="311.072" y="51.1107" width="60" height="30"/>
    <text style="fill: #000000;text-anchor:middle;font-size:11.1992;font-family:Latin Modern Roman;font-style:normal;font-weight:normal" x="341.072" y="69.5107">
      <tspan x="341.072" y="69.5107"></tspan>
    </text>
  </g>
  <line style="fill: none; fill-opacity:0; stroke-width: 2; stroke: #000000" x1="341.072" y1="51.1107" x2="341.072" y2="81.1107"/>
  <g>
    <rect style="fill: #ffffff" x="397.363" y="51.1517" width="60" height="30"/>
    <rect style="fill: none; fill-opacity:0; stroke-width: 2.4; stroke: #000000" x="397.363" y="51.1517" width="60" height="30"/>
    <text style="fill: #000000;text-anchor:middle;font-size:11.1992;font-family:Latin Modern Roman;font-style:normal;font-weight:normal" x="427.363" y="69.5517">
      <tspan x="427.363" y="69.5517"></tspan>
    </text>
  </g>
  <line style="fill: none; fill-opacity:0; stroke-width: 2; stroke: #000000" x1="427.363" y1="51.1517" x2="427.363" y2="81.1517"/>
  <g>
    <line style="fill: none; fill-opacity:0; stroke-width: 2; stroke: #000000" x1="263.531" y1="66.2084" x2="301.336" y2="66.1307"/>
    <path style="fill: #000000" d="M 263.531 66.2084 C 263.526,63.7084 266.021,61.2033 268.521,61.1982 C 271.021,61.193 273.526,63.6879 273.531,66.1879 C 273.536,68.6879 271.041,71.193 268.541,71.1981 C 266.041,71.2033 263.536,68.7084 263.531,66.2084z"/>
    <path style="fill: none; fill-opacity:0; stroke-width: 2; stroke: #000000" d="M 263.531 66.2084 C 263.526,63.7084 266.021,61.2033 268.521,61.1982 C 271.021,61.193 273.526,63.6879 273.531,66.1879 C 273.536,68.6879 271.041,71.193 268.541,71.1981 C 266.041,71.2033 263.536,68.7084 263.531,66.2084"/>
    <polygon style="fill: #000000" points="308.836,66.1153 298.847,71.1359 301.336,66.1307 298.826,61.1359 "/>
    <polygon style="fill: none; fill-opacity:0; stroke-width: 2; stroke: #000000" points="308.836,66.1153 298.847,71.1359 301.336,66.1307 298.826,61.1359 "/>
  </g>
  <line style="fill: none; fill-opacity:0; stroke-width: 2; stroke: #000000" x1="458.156" y1="50.3959" x2="427.363" y2="81.1517"/>
  <g>
    <line style="fill: none; fill-opacity:0; stroke-width: 2; stroke: #000000" x1="350.781" y1="65.7084" x2="387.628" y2="66.0591"/>
    <path style="fill: #000000" d="M 350.781 65.7084 C 350.805,63.2085 353.328,60.7324 355.828,60.7562 C 358.328,60.78 360.804,63.3037 360.781,65.8036 C 360.757,68.3035 358.233,70.7796 355.733,70.7558 C 353.233,70.732 350.757,68.2083 350.781,65.7084z"/>
    <path style="fill: none; fill-opacity:0; stroke-width: 2; stroke: #000000" d="M 350.781 65.7084 C 350.805,63.2085 353.328,60.7324 355.828,60.7562 C 358.328,60.78 360.804,63.3037 360.781,65.8036 C 360.757,68.3035 358.233,70.7796 355.733,70.7558 C 353.233,70.732 350.757,68.2083 350.781,65.7084"/>
    <polygon style="fill: #000000" points="395.127,66.1304 385.08,71.035 387.628,66.0591 385.176,61.0355 "/>
    <polygon style="fill: none; fill-opacity:0; stroke-width: 2; stroke: #000000" points="395.127,66.1304 385.08,71.035 387.628,66.0591 385.176,61.0355 "/>
  </g>
  <g>
    <rect style="fill: #ffffff" x="397.161" y="104.66" width="60" height="30"/>
    <rect style="fill: none; fill-opacity:0; stroke-width: 2.4; stroke: #000000" x="397.161" y="104.66" width="60" height="30"/>
    <text style="fill: #000000;text-anchor:middle;font-size:11.1992;font-family:Latin Modern Roman;font-style:normal;font-weight:normal" x="427.161" y="123.06">
      <tspan x="427.161" y="123.06"></tspan>
    </text>
  </g>
  <line style="fill: none; fill-opacity:0; stroke-width: 2; stroke: #000000" x1="427.161" y1="104.66" x2="427.161" y2="134.66"/>
  <g>
    <rect style="fill: #ffffff" x="483.584" y="104.483" width="60" height="30"/>
    <rect style="fill: none; fill-opacity:0; stroke-width: 2.4; stroke: #000000" x="483.584" y="104.483" width="60" height="30"/>
    <text style="fill: #000000;text-anchor:middle;font-size:11.1992;font-family:Latin Modern Roman;font-style:normal;font-weight:normal" x="513.584" y="122.883">
      <tspan x="513.584" y="122.883"></tspan>
    </text>
  </g>
  <line style="fill: none; fill-opacity:0; stroke-width: 2; stroke: #000000" x1="513.584" y1="104.483" x2="513.584" y2="134.483"/>
  <g>
    <rect style="fill: #ffffff" x="570.125" y="104.274" width="60" height="30"/>
    <rect style="fill: none; fill-opacity:0; stroke-width: 2.4; stroke: #000000" x="570.125" y="104.274" width="60" height="30"/>
    <text style="fill: #000000;text-anchor:middle;font-size:11.1992;font-family:Latin Modern Roman;font-style:normal;font-weight:normal" x="600.125" y="122.674">
      <tspan x="600.125" y="122.674"></tspan>
    </text>
  </g>
  <line style="fill: none; fill-opacity:0; stroke-width: 2; stroke: #000000" x1="600.125" y1="104.274" x2="600.125" y2="134.274"/>
  <g>
    <line style="fill: none; fill-opacity:0; stroke-width: 2; stroke: #000000" x1="437.362" y1="120.014" x2="473.848" y2="119.595"/>
    <path style="fill: #000000" d="M 437.362 120.014 C 437.333,117.514 439.805,114.985 442.304,114.957 C 444.804,114.928 447.333,117.399 447.362,119.899 C 447.39,122.399 444.919,124.927 442.419,124.956 C 439.919,124.985 437.391,122.514 437.362,120.014z"/>
    <path style="fill: none; fill-opacity:0; stroke-width: 2; stroke: #000000" d="M 437.362 120.014 C 437.333,117.514 439.805,114.985 442.304,114.957 C 444.804,114.928 447.333,117.399 447.362,119.899 C 447.39,122.399 444.919,124.927 442.419,124.956 C 439.919,124.985 437.391,122.514 437.362,120.014"/>
    <polygon style="fill: #000000" points="481.348,119.509 471.406,124.623 473.848,119.595 471.291,114.624 "/>
    <polygon style="fill: none; fill-opacity:0; stroke-width: 2; stroke: #000000" points="481.348,119.509 471.406,124.623 473.848,119.595 471.291,114.624 "/>
  </g>
  <line style="fill: none; fill-opacity:0; stroke-width: 2; stroke: #000000" x1="630.906" y1="103.646" x2="600.125" y2="134.274"/>
  <g>
    <line style="fill: none; fill-opacity:0; stroke-width: 2; stroke: #000000" x1="523.906" y1="119.396" x2="560.389" y2="119.3"/>
    <path style="fill: #000000" d="M 523.906 119.396 C 523.899,116.896 526.393,114.389 528.893,114.383 C 531.393,114.376 533.899,116.87 533.906,119.37 C 533.913,121.87 531.419,124.376 528.919,124.383 C 526.419,124.389 523.913,121.896 523.906,119.396z"/>
    <path style="fill: none; fill-opacity:0; stroke-width: 2; stroke: #000000" d="M 523.906 119.396 C 523.899,116.896 526.393,114.389 528.893,114.383 C 531.393,114.376 533.899,116.87 533.906,119.37 C 533.913,121.87 531.419,124.376 528.919,124.383 C 526.419,124.389 523.913,121.896 523.906,119.396"/>
    <polygon style="fill: #000000" points="567.889,119.28 557.902,124.307 560.389,119.3 557.875,114.307 "/>
    <polygon style="fill: none; fill-opacity:0; stroke-width: 2; stroke: #000000" points="567.889,119.28 557.902,124.307 560.389,119.3 557.875,114.307 "/>
  </g>
  <g>
    <line style="fill: none; fill-opacity:0; stroke-width: 2; stroke: #000000" x1="412.281" y1="60.7084" x2="412.188" y2="94.9242"/>
    <path style="fill: #000000" d="M 412.281 60.7084 C 414.781,60.7152 417.274,63.222 417.267,65.722 C 417.261,68.222 414.754,70.7152 412.254,70.7084 C 409.754,70.7016 407.261,68.1948 407.267,65.6948 C 407.274,63.1948 409.781,60.7016 412.281,60.7084z"/>
    <path style="fill: none; fill-opacity:0; stroke-width: 2; stroke: #000000" d="M 412.281 60.7084 C 414.781,60.7152 417.274,63.222 417.267,65.722 C 417.261,68.222 414.754,70.7152 412.254,70.7084 C 409.754,70.7016 407.261,68.1948 407.267,65.6948 C 407.274,63.1948 409.781,60.7016 412.281,60.7084"/>
    <polygon style="fill: #000000" points="412.167,102.424 407.195,92.4105 412.188,94.9242 417.195,92.4378 "/>
    <polygon style="fill: none; fill-opacity:0; stroke-width: 2; stroke: #000000" points="412.167,102.424 407.195,92.4105 412.188,94.9242 417.195,92.4378 "/>
  </g>
  <g>
    <line style="fill: none; fill-opacity:0; stroke-width: 2; stroke: #000000" x1="325.411" y1="61.2593" x2="325.407" y2="94.7223"/>
    <path style="fill: #000000" d="M 325.411 61.2593 C 327.911,61.2596 330.411,63.7599 330.411,66.2599 C 330.41,68.7599 327.91,71.2596 325.41,71.2593 C 322.91,71.259 320.41,68.7587 320.411,66.2587 C 320.411,63.7587 322.911,61.259 325.411,61.2593z"/>
    <path style="fill: none; fill-opacity:0; stroke-width: 2; stroke: #000000" d="M 325.411 61.2593 C 327.911,61.2596 330.411,63.7599 330.411,66.2599 C 330.41,68.7599 327.91,71.2596 325.41,71.2593 C 322.91,71.259 320.41,68.7587 320.411,66.2587 C 320.411,63.7587 322.911,61.259 325.411,61.2593"/>
    <polygon style="fill: #000000" points="325.406,102.222 320.407,92.2217 325.407,94.7223 330.407,92.2229 "/>
    <polygon style="fill: none; fill-opacity:0; stroke-width: 2; stroke: #000000" points="325.406,102.222 320.407,92.2217 325.407,94.7223 330.407,92.2229 "/>
  </g>
  <text style="fill: #000000;text-anchor:start;font-size:28pt;font-family:Latin Modern Mono;font-style:normal;font-weight:normal" x="319.256" y="124.433">
    <tspan x="319.256" y="124.433">5</tspan>
  </text>
  <g>
    <line style="fill: none; fill-opacity:0; stroke-width: 2; stroke: #000000" x1="238.371" y1="61.8476" x2="238.367" y2="95.3106"/>
    <path style="fill: #000000" d="M 238.371 61.8476 C 240.871,61.8479 243.37,64.3482 243.37,66.8482 C 243.37,69.3482 240.87,71.8479 238.37,71.8476 C 235.87,71.8473 233.37,69.347 233.37,66.847 C 233.37,64.347 235.871,61.8473 238.371,61.8476z"/>
    <path style="fill: none; fill-opacity:0; stroke-width: 2; stroke: #000000" d="M 238.371 61.8476 C 240.871,61.8479 243.37,64.3482 243.37,66.8482 C 243.37,69.3482 240.87,71.8479 238.37,71.8476 C 235.87,71.8473 233.37,69.347 233.37,66.847 C 233.37,64.347 235.871,61.8473 238.371,61.8476"/>
    <polygon style="fill: #000000" points="238.366,102.811 233.367,92.81 238.367,95.3106 243.367,92.8112 "/>
    <polygon style="fill: none; fill-opacity:0; stroke-width: 2; stroke: #000000" points="238.366,102.811 233.367,92.81 238.367,95.3106 243.367,92.8112 "/>
  </g>
  <g>
    <line style="fill: none; fill-opacity:0; stroke-width: 2; stroke: #000000" x1="412.371" y1="114.848" x2="412.367" y2="148.311"/>
    <path style="fill: #000000" d="M 412.371 114.848 C 414.871,114.848 417.37,117.348 417.37,119.848 C 417.37,122.348 414.87,124.848 412.37,124.848 C 409.87,124.847 407.37,122.347 407.37,119.847 C 407.37,117.347 409.871,114.847 412.371,114.848z"/>
    <path style="fill: none; fill-opacity:0; stroke-width: 2; stroke: #000000" d="M 412.371 114.848 C 414.871,114.848 417.37,117.348 417.37,119.848 C 417.37,122.348 414.87,124.848 412.37,124.848 C 409.87,124.847 407.37,122.347 407.37,119.847 C 407.37,117.347 409.871,114.847 412.371,114.848"/>
    <polygon style="fill: #000000" points="412.366,155.811 407.367,145.81 412.367,148.311 417.367,145.811 "/>
    <polygon style="fill: none; fill-opacity:0; stroke-width: 2; stroke: #000000" points="412.366,155.811 407.367,145.81 412.367,148.311 417.367,145.811 "/>
  </g>
  <g>
    <line style="fill: none; fill-opacity:0; stroke-width: 2; stroke: #000000" x1="498.721" y1="114.573" x2="498.717" y2="148.036"/>
    <path style="fill: #000000" d="M 498.721 114.573 C 501.221,114.573 503.72,117.073 503.72,119.573 C 503.72,122.073 501.22,124.573 498.72,124.573 C 496.22,124.572 493.72,122.072 493.72,119.572 C 493.72,117.072 496.221,114.572 498.721,114.573z"/>
    <path style="fill: none; fill-opacity:0; stroke-width: 2; stroke: #000000" d="M 498.721 114.573 C 501.221,114.573 503.72,117.073 503.72,119.573 C 503.72,122.073 501.22,124.573 498.72,124.573 C 496.22,124.572 493.72,122.072 493.72,119.572 C 493.72,117.072 496.221,114.572 498.721,114.573"/>
    <polygon style="fill: #000000" points="498.716,155.536 493.717,145.535 498.717,148.036 503.717,145.536 "/>
    <polygon style="fill: none; fill-opacity:0; stroke-width: 2; stroke: #000000" points="498.716,155.536 493.717,145.535 498.717,148.036 503.717,145.536 "/>
  </g>
  <g>
    <line style="fill: none; fill-opacity:0; stroke-width: 2; stroke: #000000" x1="585.446" y1="114.298" x2="585.442" y2="147.761"/>
    <path style="fill: #000000" d="M 585.446 114.298 C 587.946,114.298 590.445,116.798 590.445,119.298 C 590.445,121.798 587.945,124.298 585.445,124.298 C 582.945,124.297 580.445,121.797 580.445,119.297 C 580.445,116.797 582.946,114.297 585.446,114.298z"/>
    <path style="fill: none; fill-opacity:0; stroke-width: 2; stroke: #000000" d="M 585.446 114.298 C 587.946,114.298 590.445,116.798 590.445,119.298 C 590.445,121.798 587.945,124.298 585.445,124.298 C 582.945,124.297 580.445,121.797 580.445,119.297 C 580.445,116.797 582.946,114.297 585.446,114.298"/>
    <polygon style="fill: #000000" points="585.441,155.261 580.442,145.26 585.442,147.761 590.442,145.261 "/>
    <polygon style="fill: none; fill-opacity:0; stroke-width: 2; stroke: #000000" points="585.441,155.261 580.442,145.26 585.442,147.761 590.442,145.261 "/>
  </g>
  <text style="fill: #000000;text-anchor:start;font-size:28pt;font-family:Latin Modern Mono;font-style:normal;font-weight:normal" x="405.756" y="179.183">
    <tspan x="405.756" y="179.183">*</tspan>
  </text>
  <text style="fill: #000000;text-anchor:start;font-size:28pt;font-family:Latin Modern Mono;font-style:normal;font-weight:normal" x="492.106" y="177.908">
    <tspan x="492.106" y="177.908">3</tspan>
  </text>
  <text style="fill: #000000;text-anchor:start;font-size:28pt;font-family:Latin Modern Mono;font-style:normal;font-weight:normal" x="578.831" y="175.383">
    <tspan x="578.831" y="175.383">8</tspan>
  </text>
  <g>
    <polygon style="fill: #ffffff" points="122.049,98.4309 155.131,98.4309 166.158,98.4309 166.158,88.4309 188.212,108.431 166.158,128.431 166.158,118.431 122.049,118.431 "/>
    <polygon style="fill: none; fill-opacity:0; stroke-width: 2; stroke: #000000" points="122.049,98.4309 155.131,98.4309 166.158,98.4309 166.158,88.4309 188.212,108.431 166.158,128.431 166.158,118.431 122.049,118.431 "/>
    <polygon style="fill: none; fill-opacity:0; stroke-width: 2; stroke: #000000" points="122.049,98.4309 155.131,98.4309 166.158,98.4309 166.158,88.4309 188.212,108.431 166.158,128.431 166.158,118.431 122.049,118.431 "/>
  </g>
  <text style="fill: #000000;text-anchor:start;font-size:20pt;font-family:Latin Modern Roman;font-style:normal;font-weight:normal" x="-74.1727" y="215.71">
    <tspan x="-90" y="215.71">MicroLisp-Ausdruck</tspan>
  </text>
  <text style="fill: #000000;text-anchor:start;font-size:20pt;font-family:Latin Modern Roman;font-style:normal;font-weight:normal" x="363.526" y="215.003">
    <tspan x="300" y="215.003">abstrakter Syntaxbaum</tspan>
  </text>
</svg>
